<svg xmlns="http://www.w3.org/2000/svg" width="160" height="140" viewBox="0 0 160 140">
  <defs>
    <pattern id="thatch" width="8" height="8" patternUnits="userSpaceOnUse">
      <rect width="8" height="8" fill="#a98442" />
      <path d="M1 0v8M5 0v8" stroke="#d3b36a" stroke-width="2" />
      <path d="M0 6h8" stroke="#77582f" stroke-width="1" />
    </pattern>
    <pattern id="stone" width="18" height="12" patternUnits="userSpaceOnUse">
      <rect width="18" height="12" fill="#9b9b88" />
      <path d="M0 0h18M0 12h18M9 0v6M0 6h18M3 6v6" stroke="#666d61" fill="none" />
    </pattern>
    <pattern id="wood" width="12" height="12" patternUnits="userSpaceOnUse">
      <rect width="12" height="12" fill="#9b7849" />
      <path d="M0 2h12M0 8h12" stroke="#685134" stroke-width="2" />
    </pattern>
  </defs>
  <!-- Bey otağı -->
  <!-- Oduncu -->
  <g stroke="#4e4833" stroke-width="1.5" stroke-linejoin="round">
    <ellipse cx="80" cy="120" rx="66" ry="13" fill="#273c25" opacity=".25" stroke="none" />
    <path d="M25 72L77 53L123 76L72 98Z" fill="#ad8c52" />
    <path d="M25 72V105L72 126V98Z" fill="url(#wood)" />
    <path d="M72 98L123 76V108L72 126Z" fill="#b69b67" />
    <path d="M16 77L54 33L81 45L72 99Z" fill="url(#thatch)" />
    <path d="M54 33L131 70L72 99L81 45Z" fill="url(#thatch)" />
    <path d="M54 33L131 70M16 77L72 99" fill="none" stroke="#64482a" stroke-width="3" />
    <path d="M83 120V96L106 87V113Z" fill="#4d4934" />
    <path d="M33 86V108M58 96V120" stroke="#55462f" stroke-width="4" />
    <g transform="translate(8 111) rotate(-15)">
      <rect x="0" y="0" width="39" height="8" rx="4" fill="#785431" />
      <ellipse cx="39" cy="4" rx="4" ry="4" fill="#d0ad6b" />
      <rect x="5" y="-8" width="39" height="8" rx="4" fill="#886239" />
      <ellipse cx="44" cy="-4" rx="4" ry="4" fill="#d0ad6b" />
    </g>
    <path d="M136 53V104" stroke="#655536" stroke-width="7" />
    <path d="M136 10L113 58H159Z" fill="#4f6939" />
    <path d="M136 28L111 77H161Z" fill="#3e5931" />
    <path d="M136 43L113 91H159Z" fill="#476338" />
  </g>
  <!-- Ambar -->
</svg>