<svg xmlns="http://www.w3.org/2000/svg" width="160" height="140" viewBox="0 0 160 140">
  <defs>
    <pattern id="mkthatch" width="8" height="8" patternUnits="userSpaceOnUse">
      <rect width="8" height="8" fill="#a98442"/>
      <path d="M1 0v8M5 0v8" stroke="#d3b36a" stroke-width="2"/>
      <path d="M0 6h8" stroke="#77582f" stroke-width="1"/>
    </pattern>
    <pattern id="mkstone" width="18" height="12" patternUnits="userSpaceOnUse">
      <rect width="18" height="12" fill="#9b9b88"/>
      <path d="M0 0h18M0 12h18M9 0v6M0 6h18M3 6v6" stroke="#666d61" fill="none"/>
    </pattern>
    <pattern id="mkwood" width="12" height="12" patternUnits="userSpaceOnUse">
      <rect width="12" height="12" fill="#9b7849"/>
      <path d="M0 2h12M0 8h12" stroke="#685134" stroke-width="2"/>
    </pattern>
  </defs>
  <!-- Pazar -->
  <g stroke="#4e4833" stroke-width="1.5" stroke-linejoin="round">
    <ellipse cx="80" cy="122" rx="62" ry="12" fill="#273c25" opacity=".28" stroke="none"/>

    <path d="M20 90L50 70L80 90L50 110Z" fill="#d4a060"/>
    <path d="M20 90V110L50 125V110Z" fill="#a87840"/>
    <path d="M50 110L80 90V110L50 125Z" fill="#c49050"/>
    <path d="M25 90L50 55L75 90Z" fill="#2e6b4a"/>
    <path d="M80 88L110 68L140 88L110 108Z" fill="#d4a060"/>
    <path d="M80 88V108L110 123V108Z" fill="#a87840"/>
    <path d="M110 108L140 88V108L110 123Z" fill="#c49050"/>
    <path d="M85 88L110 53L135 88Z" fill="#8c3026"/>
    <ellipse cx="50" cy="105" rx="6" ry="4" fill="#c9a227" stroke="none"/>
    <ellipse cx="110" cy="103" rx="6" ry="4" fill="#6a8c2e" stroke="none"/>
    <path d="M95 115V100H125V115Z" fill="url(#mkwood)"/>

  </g>
</svg>
